<svg xmlns="http://www.w3.org/2000/svg" viewBox="0 0 180.45 122.45"><defs><style>.cls-1{fill:#59725d;}.cls-2{fill:#dbb2ba;stroke:#000;stroke-miterlimit:10;}.cls-3{fill:#f4ece5;}.cls-4{fill:#260e06;}</style></defs><title>CRAFT-ESPRESSO-ICON</title><g id="Layer_2" data-name="Layer 2"><g id="Layer_2-2" data-name="Layer 2"><path class="cls-1" d="M20.5,114.33h1.34V101H20.5V99H32.1v3.8H30.22V101H23.81v5.65h7.36v2H23.81v5.78h6.74v-1.85h1.89v3.8H20.5Z"/><path class="cls-1" d="M36.15,113.31v1a2.44,2.44,0,0,0,.57.16,6.39,6.39,0,0,0,.68,0h.18a1,1,0,0,0,.35-.1.87.87,0,0,0,.35-.26.86.86,0,0,0,.18-.51.77.77,0,0,0-.24-.68,2.11,2.11,0,0,0-.68-.4l-.92-.32a3.58,3.58,0,0,1-.95-.44,2.18,2.18,0,0,1-.73-.8,2.9,2.9,0,0,1-.29-1.39,2.63,2.63,0,0,1,.29-1.28,2.58,2.58,0,0,1,.71-.85,2.94,2.94,0,0,1,.93-.48,3.13,3.13,0,0,1,.9-.15,4.84,4.84,0,0,1,.59,0,3.75,3.75,0,0,1,.7.17,4,4,0,0,1,.7.32,2.27,2.27,0,0,1,.61.5V110H38.32v-1.06a2.33,2.33,0,0,0-.73-.12,1.11,1.11,0,0,0-.77.23.7.7,0,0,0-.19.63.66.66,0,0,0,.36.48,4.14,4.14,0,0,0,.73.36l.9.4a4,4,0,0,1,.88.55,2.54,2.54,0,0,1,.67.84,2.68,2.68,0,0,1,.27,1.27,3.75,3.75,0,0,1-.13.84,3.05,3.05,0,0,1-.47,1,2.51,2.51,0,0,1-.93.79,3.15,3.15,0,0,1-1.54.32,6,6,0,0,1-1.7-.23,2.67,2.67,0,0,1-1.28-.78v-2.15Z"/><path class="cls-1" d="M42.25,120.5h1.59V109H42v-2h3.48c0,.18,0,.38,0,.58s0,.4.07.58a1.39,1.39,0,0,1,.28-.31,3.79,3.79,0,0,1,.65-.47,6.42,6.42,0,0,1,.94-.42,3.62,3.62,0,0,1,1.16-.18,4.78,4.78,0,0,1,1.88.38A4.81,4.81,0,0,1,53,109.77a4.91,4.91,0,0,1,0,3.74,4.76,4.76,0,0,1-2.53,2.61,4.78,4.78,0,0,1-1.88.38,4.25,4.25,0,0,1-1.19-.15,5,5,0,0,1-.91-.34,3.82,3.82,0,0,1-.61-.39,1.55,1.55,0,0,1-.29-.28,1.6,1.6,0,0,0,.1.23,2.56,2.56,0,0,1,.11.24v4.69h1.71v2H42.25Zm9.17-8.86a2.81,2.81,0,0,0-.78-2,3,3,0,0,0-4,0,2.81,2.81,0,0,0-.78,2,2.85,2.85,0,0,0,.78,2,2.87,2.87,0,0,0,4,0A2.85,2.85,0,0,0,51.42,111.64Z"/><path class="cls-1" d="M55.06,114.33h1.81V109H55.3v-2h3.31v.22c0,.4.06.76.08,1.08s.05.68.08,1.07a4.68,4.68,0,0,1,.73-1.1,5,5,0,0,1,.93-.81,4.66,4.66,0,0,1,1-.51,2.55,2.55,0,0,1,.82-.17l-.14,2a3.22,3.22,0,0,0-2.33.84,2.84,2.84,0,0,0-.88,2.14v2.55h1.5v2H55.06Z"/><path class="cls-1" d="M72.83,110.9l-3.23,1.23-3.23,1.23a2.52,2.52,0,0,0,.94.83,2.74,2.74,0,0,0,1.32.31,2.31,2.31,0,0,0,1.81-.79l1.22,1.48a4.43,4.43,0,0,1-1.36,1,4,4,0,0,1-1.67.35,4.7,4.7,0,0,1-1.87-.38,4.87,4.87,0,0,1-1.51-1.05,5.06,5.06,0,0,1-1-1.55,4.71,4.71,0,0,1-.37-1.88,4.9,4.9,0,0,1,1.38-3.42,4.85,4.85,0,0,1,1.51-1,4.7,4.7,0,0,1,1.87-.38,3.3,3.3,0,0,1,1.42.31,4.07,4.07,0,0,1,1.22.85,5.64,5.64,0,0,1,.94,1.3A7,7,0,0,1,72.83,110.9Zm-4.2-2.1a2.67,2.67,0,0,0-2.78,2.64c.74-.28,1.49-.56,2.22-.85l2.23-.85a2.83,2.83,0,0,0-.75-.68A1.73,1.73,0,0,0,68.63,108.8Z"/><path class="cls-1" d="M76.64,113.31v1a2.5,2.5,0,0,0,.56.16,6.6,6.6,0,0,0,.69,0h.18a1.11,1.11,0,0,0,.35-.1.91.91,0,0,0,.34-.26.8.8,0,0,0,.19-.51.83.83,0,0,0-.24-.68,2.28,2.28,0,0,0-.69-.4l-.92-.32a3.73,3.73,0,0,1-.95-.44,2.27,2.27,0,0,1-.73-.8,2.91,2.91,0,0,1-.28-1.39,2.51,2.51,0,0,1,1-2.13,2.8,2.8,0,0,1,.92-.48,3.25,3.25,0,0,1,.91-.15,4.69,4.69,0,0,1,.58,0,3.84,3.84,0,0,1,.71.17,4.35,4.35,0,0,1,.7.32,2.22,2.22,0,0,1,.6.5V110H78.8v-1.06a2.27,2.27,0,0,0-.72-.12,1.09,1.09,0,0,0-.77.23.7.7,0,0,0-.2.63.66.66,0,0,0,.36.48,4.51,4.51,0,0,0,.73.36l.9.4a3.89,3.89,0,0,1,.89.55,2.68,2.68,0,0,1,.67.84,2.81,2.81,0,0,1,.26,1.27,3.25,3.25,0,0,1-.13.84,3,3,0,0,1-.46,1,2.68,2.68,0,0,1-.93.79,3.21,3.21,0,0,1-1.55.32,5.9,5.9,0,0,1-1.69-.23,2.71,2.71,0,0,1-1.29-.78v-2.15Z"/><path class="cls-1" d="M84.54,113.31v1a2.44,2.44,0,0,0,.57.16,6.39,6.39,0,0,0,.68,0H86a1,1,0,0,0,.35-.1.87.87,0,0,0,.35-.26.74.74,0,0,0,.18-.51.77.77,0,0,0-.24-.68,2.11,2.11,0,0,0-.68-.4l-.92-.32a3.73,3.73,0,0,1-1-.44,2.18,2.18,0,0,1-.73-.8,2.9,2.9,0,0,1-.29-1.39,2.63,2.63,0,0,1,.29-1.28,2.71,2.71,0,0,1,.71-.85A2.94,2.94,0,0,1,85,107a3.19,3.19,0,0,1,.91-.15,4.86,4.86,0,0,1,.58,0,3.75,3.75,0,0,1,.7.17,4,4,0,0,1,.7.32,2.27,2.27,0,0,1,.61.5V110H86.71v-1.06a2.28,2.28,0,0,0-.73-.12,1.11,1.11,0,0,0-.77.23.72.72,0,0,0-.19.63.66.66,0,0,0,.36.48,4.14,4.14,0,0,0,.73.36l.9.4a3.82,3.82,0,0,1,.88.55,2.42,2.42,0,0,1,.67.84,2.68,2.68,0,0,1,.27,1.27,3.75,3.75,0,0,1-.13.84,3.05,3.05,0,0,1-.47,1,2.51,2.51,0,0,1-.93.79,3.15,3.15,0,0,1-1.54.32,5.85,5.85,0,0,1-1.69-.23,2.71,2.71,0,0,1-1.29-.78v-2.15Z"/><path class="cls-1" d="M90.4,111.64a4.78,4.78,0,0,1,.37-1.88,4.63,4.63,0,0,1,1-1.54,4.85,4.85,0,0,1,1.51-1,4.82,4.82,0,0,1,3.75,0,4.83,4.83,0,0,1,2.91,4.46,4.71,4.71,0,0,1-.37,1.88,5.06,5.06,0,0,1-1,1.55A4.85,4.85,0,0,1,97,116.12a4.82,4.82,0,0,1-3.75,0,4.81,4.81,0,0,1-2.52-2.6A4.71,4.71,0,0,1,90.4,111.64Zm2,0a2.89,2.89,0,0,0,.21,1.11A2.77,2.77,0,0,0,94,114.28a2.74,2.74,0,0,0,2.15,0,3,3,0,0,0,.88-.61,2.66,2.66,0,0,0,.59-.9,2.72,2.72,0,0,0,.22-1.11,2.78,2.78,0,0,0-.22-1.11,2.91,2.91,0,0,0-.59-.91,2.82,2.82,0,0,0-.88-.62A2.74,2.74,0,0,0,94,109a2.67,2.67,0,0,0-.87.62,3.07,3.07,0,0,0-.58.91A3,3,0,0,0,92.38,111.66Z"/><path class="cls-2" d="M2.61,100.61c-5-6.77.54-10,.54-10L17.64,77.92a48.65,48.65,0,1,1,11,11L12.41,102.34S6.94,106.44,2.61,100.61Z"/><circle class="cls-3" cx="57.12" cy="49.45" r="40.7"/><path class="cls-4" d="M113.35,56.5a1.19,1.19,0,0,0-1-.42,1,1,0,0,0-.55.13,6,6,0,0,0-.35.72,12.74,12.74,0,0,0-.93,5,9,9,0,0,0,.08,1.17c.38-.54.73-1.09,1.06-1.67.72-1.25,1.35-2.36,1.89-3.36a1.44,1.44,0,0,0-.22-1.57Z"/><path class="cls-4" d="M111.82,56.21a.22.22,0,0,0-.11,0,1.13,1.13,0,0,0-.49.5c-.41.81-.9,1.74-1.51,2.8a23.93,23.93,0,0,1-2,3,14,14,0,0,1-2.47,2.45,4.63,4.63,0,0,1-2.84,1,3.34,3.34,0,0,1-1.1-.2,3.16,3.16,0,0,1-1.12-.7,4.1,4.1,0,0,1-.88-1.37,5.79,5.79,0,0,1-.35-2.15A16.71,16.71,0,0,1,99,59.78c.07-.63.14-1.27.24-1.9s.18-1.27.25-1.88a15.05,15.05,0,0,0,.11-1.74,3.72,3.72,0,0,0-1.06-3,4.57,4.57,0,0,0-3.06-.92l-1.12,0H93.23a14.49,14.49,0,0,0-.12-1.71,11,11,0,0,0-.41-1.86,4.33,4.33,0,0,0-.79-1.51,1.64,1.64,0,0,0-1.31-.61,2,2,0,0,0-1.42.74,8.35,8.35,0,0,0-1.26,1.75,12.57,12.57,0,0,0-.9,2.08A6,6,0,0,0,86.68,51,2.14,2.14,0,0,0,87,52.27a2,2,0,0,0,.89.68,3.83,3.83,0,0,0,1.19.26l1.22,0c-.21,1.07-.38,1.85-.52,2.37a29.1,29.1,0,0,1-5.35,11.07c-1.26,1.6-4,4.82-11.78,8a47.52,47.52,0,0,1-14.85,3,44.37,44.37,0,0,1-7.5-.66,36.08,36.08,0,0,1-7.2-2,30.82,30.82,0,0,1-6.46-3.52,24.14,24.14,0,0,1-5.23-5.06A22.63,22.63,0,0,1,28,59.72a26.34,26.34,0,0,1-1.26-8.41,27.52,27.52,0,0,1,1.55-9.43A29.44,29.44,0,0,1,32.4,34.1,30.36,30.36,0,0,1,38.46,28a39.16,39.16,0,0,1,7.26-4.36,37.89,37.89,0,0,1,7.71-2.61,33.72,33.72,0,0,1,7.46-.88,35.63,35.63,0,0,1,8.87,1.07,25.82,25.82,0,0,1,7.25,3,16,16,0,0,1,4.93,4.7A10.79,10.79,0,0,1,83.76,35a12.43,12.43,0,0,1-1.45,5.8,16.15,16.15,0,0,1-4,4.91,20.52,20.52,0,0,1-5.9,3.42,20.28,20.28,0,0,1-7.22,1.28A19.29,19.29,0,0,1,61.1,50a11.44,11.44,0,0,1-3.77-1.49,8.38,8.38,0,0,1-2.75-2.71,7.49,7.49,0,0,1-1-4.09A8.16,8.16,0,0,1,54,38.86a12.92,12.92,0,0,1,1.06-2.2,11.65,11.65,0,0,1,1.07-1.45,6.1,6.1,0,0,1,.59-.58,1.71,1.71,0,0,0,.53-1.27,1.48,1.48,0,0,0-.45-1.12,1.6,1.6,0,0,0-1.11-.42,2.31,2.31,0,0,0-.52.06,1,1,0,0,0-.48.27l-.77.8a10.6,10.6,0,0,0-1.44,1.94,15.53,15.53,0,0,0-1.41,3,10.72,10.72,0,0,0-.64,3.81,11.47,11.47,0,0,0,1,4.69,10.38,10.38,0,0,0,2.81,3.8,13.15,13.15,0,0,0,4.62,2.54,20.38,20.38,0,0,0,6.38.91,23.68,23.68,0,0,0,8.4-1.48,23,23,0,0,0,6.91-4.06,19.37,19.37,0,0,0,4.66-6A15.82,15.82,0,0,0,86.86,35a13.6,13.6,0,0,0-2-7.36,18.66,18.66,0,0,0-5.56-5.68,28,28,0,0,0-8.2-3.67A37.81,37.81,0,0,0,61,17a39.55,39.55,0,0,0-9.48,1.14,40,40,0,0,0-8.8,3.31A38.37,38.37,0,0,0,35,26.65,35.2,35.2,0,0,0,29,33.55a32.29,32.29,0,0,0-4,8.3,30.9,30.9,0,0,0-1.43,9.46,29.59,29.59,0,0,0,1.39,9.31,26.22,26.22,0,0,0,3.82,7.45,26.52,26.52,0,0,0,5.73,5.71,33.91,33.91,0,0,0,7.11,4,39.75,39.75,0,0,0,8,2.34,45.78,45.78,0,0,0,8.33.77,34.79,34.79,0,0,0,10.33-1.55,43.43,43.43,0,0,0,9.24-4.1A36.46,36.46,0,0,0,85,69.48c4.95-5.08,7.12-12.56,7.26-13s.26-.93.39-1.49A15.78,15.78,0,0,0,93,53.17c.45,0,.87,0,1.25,0h1.07a1.78,1.78,0,0,1,1.32.35,1.56,1.56,0,0,1,.3,1A18.23,18.23,0,0,1,96.61,58a18.24,18.24,0,0,0-.36,3.6,9.3,9.3,0,0,0,.49,3.08,6.86,6.86,0,0,0,1.33,2.28,5.57,5.57,0,0,0,2,1.42,6,6,0,0,0,2.39.49,6.61,6.61,0,0,0,3.75-1.13,14,14,0,0,0,3.07-2.75,20.49,20.49,0,0,0,1.39-1.83h0a9,9,0,0,1-.08-1.17,12.74,12.74,0,0,1,.93-5A6,6,0,0,1,111.82,56.21Zm-22.7-5.73c0-.19.11-.43.2-.72s.21-.56.32-.82.24-.47.33-.65.19-.27.27-.27.13.09.19.29a3.63,3.63,0,0,1,.14.69,7.15,7.15,0,0,1,.07.82c0,.28,0,.49,0,.66Z"/><path class="cls-4" d="M138.1,56.5a1.18,1.18,0,0,0-1-.46,1.25,1.25,0,0,0-.72.22,1.22,1.22,0,0,0-.3.26s0,0,0,0a1.71,1.71,0,0,0-.21.35c-.21.46-.47,1-.77,1.63s-.66,1.28-1.06,2-.84,1.35-1.32,2a14.88,14.88,0,0,1-1.51,1.78,8.6,8.6,0,0,1-1.62,1.25A3.4,3.4,0,0,1,128,66a2.52,2.52,0,0,1-2-.9,6.08,6.08,0,0,1-1.1-2.15,11.69,11.69,0,0,1-.48-2.48c-.06-.83-.11-1.48-.13-1.94a1.55,1.55,0,0,0-.41-.91,1.17,1.17,0,0,0-.87-.39,1.31,1.31,0,0,0-.91.33,1.35,1.35,0,0,0-.45.85,12,12,0,0,1-.87,3.28A9.42,9.42,0,0,1,119.32,64a5.25,5.25,0,0,1-1.58,1.35,3.25,3.25,0,0,1-1.47.43,2.9,2.9,0,0,1-1.48-.36,2.76,2.76,0,0,1-.94-1,4.12,4.12,0,0,1-.5-1.28,7.45,7.45,0,0,1-.14-1.39,9.72,9.72,0,0,1,.7-3.84,8.78,8.78,0,0,1,1.7-2.69,6.83,6.83,0,0,1,2.25-1.58,6.1,6.1,0,0,1,2.33-.51,4.78,4.78,0,0,1,1.31.17,4.26,4.26,0,0,1,1,.39,3.68,3.68,0,0,1,.68.41l.31.27a1.27,1.27,0,0,0,1,.4,1.15,1.15,0,0,0,.91-.42,1.36,1.36,0,0,0,.4-1,1.55,1.55,0,0,0-.4-1s-.14-.14-.38-.34a5.51,5.51,0,0,0-1-.68,9.37,9.37,0,0,0-1.57-.67,6.46,6.46,0,0,0-2-.31,8.79,8.79,0,0,0-3.36.73,9.9,9.9,0,0,0-3.18,2.17,10.82,10.82,0,0,0-2,2.9,6,6,0,0,0-.35.72,12.74,12.74,0,0,0-.93,5,9,9,0,0,0,.08,1.17h0a7.76,7.76,0,0,0,.33,1.42,6.38,6.38,0,0,0,1.14,2.09A5,5,0,0,0,113.88,68a5.42,5.42,0,0,0,5.67-.72A10.74,10.74,0,0,0,122.4,64a7.75,7.75,0,0,0,2,3.38,4.69,4.69,0,0,0,3.42,1.34A5.72,5.72,0,0,0,130.6,68,10.87,10.87,0,0,0,133,66.2a16.24,16.24,0,0,0,2-2.39c.36-.53.69-1,1-1.52.21-.34.41-.67.59-1,.46-.79.84-1.5,1.13-2.11s.49-1,.58-1.23a1.29,1.29,0,0,0,.11-.5A1.43,1.43,0,0,0,138.1,56.5Z"/><path class="cls-4" d="M138.69,69.87a27.56,27.56,0,0,0,4.73-2.76,29.42,29.42,0,0,0,3.8-3.28,23.66,23.66,0,0,0,2.85-3.52A22.38,22.38,0,0,0,152,56.88a1.17,1.17,0,0,1,1.2-.8,1.26,1.26,0,0,1,1,.41,1.41,1.41,0,0,1,.37.93,1.46,1.46,0,0,1-.11.55,27.24,27.24,0,0,1-2,3.68,25,25,0,0,1-2.9,3.74,29.9,29.9,0,0,1-4,3.54,30.87,30.87,0,0,1-5.24,3.12,23.36,23.36,0,0,1,3.31,4.52,31.17,31.17,0,0,1,2.34,5.17,35,35,0,0,1,1.41,5.43,31.48,31.48,0,0,1,.47,5.25,21.88,21.88,0,0,1-.4,4.3,12.73,12.73,0,0,1-1.2,3.5,7.06,7.06,0,0,1-1.92,2.34,4.11,4.11,0,0,1-2.56.85,3.8,3.8,0,0,1-3.28-1.61,11.32,11.32,0,0,1-1.7-4.47,40.44,40.44,0,0,1-.64-6.71q-.09-3.87-.09-8.41V77q0-3,0-6.43c0-2.28,0-4.68,0-7.18s0-5,.05-7.54,0-5,.07-7.42.06-4.74.11-6.92q.1-6.24.42-11.14a60.21,60.21,0,0,1,1-8.28,14.27,14.27,0,0,1,1.92-5.13,3.6,3.6,0,0,1,3.08-1.76,3.74,3.74,0,0,1,2.49.85,6.3,6.3,0,0,1,1.66,2.28,13.23,13.23,0,0,1,.91,3.36,27.62,27.62,0,0,1,.28,4,48,48,0,0,1-.74,8.57,59.88,59.88,0,0,1-2,8,72.78,72.78,0,0,1-3,7.59q-1.71,3.71-3.65,7.3v6.66c0,1.15,0,2.25,0,3.3S138.69,69.1,138.69,69.87Zm0,4.47c0,1.52,0,2.94,0,4.26s0,2.53,0,3.61c0,2.25,0,4.48,0,6.68a57.5,57.5,0,0,0,.33,5.94,18,18,0,0,0,.92,4.25c.41,1.07,1,1.61,1.78,1.61a2,2,0,0,0,1.72-1,8,8,0,0,0,1-2.32,18.12,18.12,0,0,0,.51-2.74c.09-.93.14-1.69.14-2.27a28.33,28.33,0,0,0-.41-4.65,29.53,29.53,0,0,0-1.23-4.81,31.2,31.2,0,0,0-2-4.59A21,21,0,0,0,138.69,74.34Zm.1-22.76a61.25,61.25,0,0,0,2.66-5.9,58.56,58.56,0,0,0,2.09-6.41,57.64,57.64,0,0,0,1.38-6.75,48.76,48.76,0,0,0,.49-6.94,27.35,27.35,0,0,0-.16-3.15,11.7,11.7,0,0,0-.49-2.42,4.41,4.41,0,0,0-.85-1.56,1.56,1.56,0,0,0-1.17-.56,1.5,1.5,0,0,0-1.24.87,9.1,9.1,0,0,0-.91,2.32,26.78,26.78,0,0,0-.65,3.34c-.18,1.26-.32,2.57-.44,3.94s-.21,2.74-.28,4.1-.13,2.65-.16,3.85-.06,2.26-.07,3.18,0,1.61,0,2.07c0,1,0,1.82-.05,2.57s0,1.49,0,2.22-.05,1.5-.06,2.32S138.79,50.46,138.79,51.58Z"/><path class="cls-4" d="M180.45,31.76a1.2,1.2,0,0,1-.38.92,1.39,1.39,0,0,1-.95.35H161.28v.4a37.9,37.9,0,0,1-.32,4.71c-.21,1.67-.5,3.34-.86,5s-.77,3.27-1.23,4.84-.93,3-1.41,4.36-1,2.48-1.42,3.47A12.77,12.77,0,0,1,154.77,58a21.66,21.66,0,0,0,1.09,3.1,13.21,13.21,0,0,0,1.42,2.51A7.18,7.18,0,0,0,159,65.3a3.48,3.48,0,0,0,2,.62,3.71,3.71,0,0,0,2.45-1.08,14.32,14.32,0,0,0,2.25-2.54,27.67,27.67,0,0,0,1.83-3,23.21,23.21,0,0,0,1.14-2.42,1.25,1.25,0,0,1,1.23-.87,1.22,1.22,0,0,1,1,.44,1.4,1.4,0,0,1,.37.94,1.34,1.34,0,0,1-.11.51c-.07.17-.24.56-.51,1.16s-.62,1.31-1.05,2.11-.94,1.64-1.51,2.52a15.28,15.28,0,0,1-1.94,2.41,11.5,11.5,0,0,1-2.3,1.82,5.11,5.11,0,0,1-2.61.72A6.57,6.57,0,0,1,156.81,67a12.92,12.92,0,0,1-3.29-4.57,28.58,28.58,0,0,1-2.06-7,51.37,51.37,0,0,1-.7-8.82q0-1.2,0-2.82c0-1.07.07-2.21.14-3.41s.18-2.43.32-3.7.33-2.51.56-3.72H139.18a1.39,1.39,0,0,1-1-.35,1.29,1.29,0,0,1,0-1.85,1.39,1.39,0,0,1,1-.35h13.23a17.57,17.57,0,0,1,.83-2.39,8.53,8.53,0,0,1,1.09-1.89A5,5,0,0,1,155.7,25a3.23,3.23,0,0,1,1.67-.46,2.61,2.61,0,0,1,1.53.46A3.66,3.66,0,0,1,160,26.2a6.77,6.77,0,0,1,.72,1.89,19.11,19.11,0,0,1,.41,2.39h18a1.39,1.39,0,0,1,.95.35A1.21,1.21,0,0,1,180.45,31.76ZM154,54.37a50.81,50.81,0,0,0,1.92-5.17q.85-2.78,1.47-5.61t1-5.55a40.14,40.14,0,0,0,.34-5h-4.15a43.68,43.68,0,0,0-.79,5.57c-.2,2.21-.3,4.91-.3,8.08,0,1.76,0,3.24.14,4.44A27.78,27.78,0,0,0,154,54.37Zm3.27-27.15c-.21,0-.51.23-.91.71a8,8,0,0,0-1.2,2.55h3.38a10.49,10.49,0,0,0-.51-2.39C157.76,27.51,157.51,27.22,157.23,27.22Z"/></g></g></svg>