<svg xmlns="http://www.w3.org/2000/svg" viewBox="0 0 41.61 41.61"><defs><style>.cls-1{fill:#69876e;}.cls-2{fill:#fff;fill-rule:evenodd;}</style></defs><title>CRAFT-ESPRESSO-INSTAGRAM</title><g id="Layer_2" data-name="Layer 2"><g id="Layer_2-2" data-name="Layer 2"><path class="cls-1" d="M35.51,6.09a20.79,20.79,0,1,0,6.1,14.71A20.72,20.72,0,0,0,35.51,6.09Z"/><path class="cls-2" d="M15.48,20.8a5.33,5.33,0,1,1,5.32,5.34,5.34,5.34,0,0,1-5.32-5.34ZM26.31,10.38h-11a4.94,4.94,0,0,0-4.93,4.93v11a5,5,0,0,0,4.93,4.93h11a4.94,4.94,0,0,0,4.93-4.93v-11a4.93,4.93,0,0,0-4.93-4.93Zm-11,1.23h11a3.7,3.7,0,0,1,3.7,3.7v11a3.7,3.7,0,0,1-3.7,3.7h-11a3.7,3.7,0,0,1-3.7-3.7v-11a3.7,3.7,0,0,1,3.7-3.7ZM27.4,13.17a1.08,1.08,0,1,0,1.09,1.08,1.08,1.08,0,0,0-1.09-1.08Zm.13,7.63a6.73,6.73,0,1,0-6.73,6.73,6.72,6.72,0,0,0,6.73-6.73Z"/></g></g></svg>