<svg id="Layer_1" data-name="Layer 1" xmlns="http://www.w3.org/2000/svg" viewBox="0 0 36.17 36.17"><defs><style>.cls-1{fill:#260e06;}.cls-2,.cls-3{fill:none;stroke:#fff;stroke-linejoin:round;stroke-width:2px;}.cls-3{stroke-linecap:round;}</style></defs><path class="cls-1" d="M6.19,22.75A18.09,18.09,0,1,0,24.27,4.67,18.09,18.09,0,0,0,6.19,22.75Z" transform="translate(-6.19 -4.67)"/><g id="Shopping_Bag" data-name="Shopping Bag"><path class="cls-2" d="M20.32,19V17.7h0c.11-1.67,1.85-2.94,3.87-2.84a3.38,3.38,0,0,1,3.47,2.84V19" transform="translate(-6.19 -4.67)"/><path class="cls-3" d="M27.79,30.56H20.25a3.39,3.39,0,0,1-3.63-2.66l-.77-8.68A.21.21,0,0,1,16,19H32a.21.21,0,0,1,.18.22l-.77,8.65A3.42,3.42,0,0,1,27.79,30.56Z" transform="translate(-6.19 -4.67)"/></g></svg>