<svg xmlns="http://www.w3.org/2000/svg" viewBox="0 0 41.61 41.61"><defs><style>.cls-1{fill:#69876e;}.cls-2{fill:#fff;fill-rule:evenodd;}</style></defs><title>CRAFT-ESPRESSO-SNAPCHAT</title><g id="Layer_2" data-name="Layer 2"><g id="Layer_2-2" data-name="Layer 2"><path class="cls-1" d="M35.51,6.09a20.8,20.8,0,1,0,6.1,14.72A20.78,20.78,0,0,0,35.51,6.09Z"/><path class="cls-2" d="M31.22,26v0h0a2.06,2.06,0,0,0-.68-.24h0a5.72,5.72,0,0,1-2.75-2,7.07,7.07,0,0,1-1-1.65h0a.8.8,0,0,1,0-.72h0a2.09,2.09,0,0,1,.94-.62h0a3.52,3.52,0,0,0,1.29-.66h0a.41.41,0,0,0,.2-.24.23.23,0,0,1,0-.09.56.56,0,0,0,0-.35h0a1,1,0,0,0-.44-.42h0a1,1,0,0,0-.78-.07h0a3.51,3.51,0,0,1-.68.2s0,0,0,0a2.2,2.2,0,0,1-.78,0,.45.45,0,0,0,0-.18h0c0-.46,0-.94,0-1.46h0a15.19,15.19,0,0,0-.05-2.33v0a5.33,5.33,0,0,0-2.19-3.24A5.46,5.46,0,0,0,21.67,11h0c-.33,0-.65-.06-1-.06a6,6,0,0,0-3.64,1.18,5.72,5.72,0,0,0-1.79,2.31v0A6.54,6.54,0,0,0,15,17.23h0c0,.63.08,1.25,0,1.86,0,0,0,0,0,0a3.1,3.1,0,0,1-.91,0h0c-.22,0-.43-.13-.69-.2h0a.76.76,0,0,0-.68.15h0a.71.71,0,0,0-.39.58.06.06,0,0,0,0,0h0a.67.67,0,0,0,.23.38,1.51,1.51,0,0,0,.25.18v0a7.92,7.92,0,0,0,1.44.62h0a1,1,0,0,1,.64.62,1.64,1.64,0,0,1-.25,1.1h0a6.78,6.78,0,0,1-2.19,2.51,5.52,5.52,0,0,1-1.6.72h0c-.13.06-.42.08-.58.35a.09.09,0,0,0,0,.07.46.46,0,0,0,.09.43.67.67,0,0,0,.25.2h0a5.52,5.52,0,0,0,1.49.52h0a8.42,8.42,0,0,1,.93.23,1.86,1.86,0,0,1,.1.25c.1.27.13.59.23.91a.29.29,0,0,0,.2.17.54.54,0,0,0,.36,0h0a6,6,0,0,1,2.35-.07h0a9,9,0,0,1,2.21,1.19h0a3.46,3.46,0,0,0,1.75.64h0a10.7,10.7,0,0,0,1.5,0h0a2.9,2.9,0,0,0,1.17-.39l0,0c.79-.43,1.48-1,2.27-1.33h0a4.64,4.64,0,0,1,.92-.11h0a13.65,13.65,0,0,1,1.92.11h.07a.34.34,0,0,0,.22-.12.48.48,0,0,0,.07-.15s0-.08,0,0,0,0,0-.05a2.71,2.71,0,0,1,.36-.94.55.55,0,0,1,.4-.13h.05a7.23,7.23,0,0,0,1.52-.43s0,0,0,0a1.29,1.29,0,0,0,.6-.4h0a.42.42,0,0,0-.11-.62Z"/></g></g></svg>