<svg xmlns="http://www.w3.org/2000/svg" viewBox="0 0 41.61 41.61"><defs><style>.cls-1{fill:#69876e;}.cls-2{fill:#fff;fill-rule:evenodd;}</style></defs><title>CRAFT-ESPRESSO-TWITTER</title><g id="Layer_2" data-name="Layer 2"><g id="Layer_2-2" data-name="Layer 2"><path class="cls-1" d="M35.51,6.09a20.8,20.8,0,1,0,6.1,14.72A20.78,20.78,0,0,0,35.51,6.09Z"/><path class="cls-2" d="M31.42,14.33a9.63,9.63,0,0,1-2.49.68,4.37,4.37,0,0,0,1.92-2.39,8.88,8.88,0,0,1-2.78,1.05,4.37,4.37,0,0,0-7.54,2.92,5.05,5.05,0,0,0,.12,1,12.33,12.33,0,0,1-9-4.48,4.33,4.33,0,0,0-.6,2.16A4.28,4.28,0,0,0,13,18.82a4.19,4.19,0,0,1-2-.53v.06a4.17,4.17,0,0,0,.29,1.54,4.36,4.36,0,0,0,3.21,2.65,4.43,4.43,0,0,1-1.15.16,4.38,4.38,0,0,1-.82-.09,4.39,4.39,0,0,0,4.06,3,8.8,8.8,0,0,1-5.4,1.83,9.24,9.24,0,0,1-1.05-.06,12.6,12.6,0,0,0,6.68,1.93A12.12,12.12,0,0,0,29,19.69a11.56,11.56,0,0,0,.29-2.59v-.55a8.93,8.93,0,0,0,2.16-2.22Z"/></g></g></svg>