<svg xmlns="http://www.w3.org/2000/svg" viewBox="0 0 41.61 41.61"><defs><style>.cls-1{fill:#69876e;}.cls-2{fill:#fff;fill-rule:evenodd;}</style></defs><title>CRAFT-ESPRESSO-PINTEREST</title><g id="Layer_2" data-name="Layer 2"><g id="Layer_2-2" data-name="Layer 2"><path class="cls-1" d="M35.51,6.09a20.79,20.79,0,1,0,6.1,14.71A20.72,20.72,0,0,0,35.51,6.09Z"/><path class="cls-2" d="M21.31,10.19c-6,0-9,4.14-9,7.61a6.8,6.8,0,0,0,.23,1.83,4,4,0,0,0,2.35,2.83.43.43,0,0,0,.63-.3c.07-.22.19-.75.26-1a.57.57,0,0,0-.17-.68,3.28,3.28,0,0,1-.69-1.26,4.35,4.35,0,0,1-.15-1.13A5.88,5.88,0,0,1,21,12.27c3.37,0,5.24,2,5.24,4.66A10.89,10.89,0,0,1,26,19.19c-.53,2.45-1.91,4.23-3.77,4.23a1.91,1.91,0,0,1-2-2.35c.18-.73.45-1.49.68-2.22a8,8,0,0,0,.45-2.1,1.66,1.66,0,0,0-1.72-1.83c-1.35,0-2.43,1.36-2.43,3.15a4.62,4.62,0,0,0,.08.9,4.7,4.7,0,0,0,.32,1S16.23,25.67,16,26.66a13,13,0,0,0,0,4.63c0,.13.2.17.3.07a13.42,13.42,0,0,0,2.28-4c.13-.55.88-3.36.88-3.36a3.63,3.63,0,0,0,3.08,1.53c3.28,0,5.72-2.39,6.52-5.85a11.36,11.36,0,0,0,.28-2.51c0-3.63-3.17-7-8-7Z"/></g></g></svg>